<?xml version="1.0" encoding="UTF-8"?>
<svg version="1.1" xmlns="http://www.w3.org/2000/svg" width="64" height="64">
<path d="M0 0 C0.99 0 1.98 0 3 0 C4.35439668 2.70879335 4.06501451 5.00933268 4 8 C6.64 7.67 9.28 7.34 12 7 C12.33 8.32 12.66 9.64 13 11 C12.01 11.33 11.02 11.66 10 12 C10.061875 12.928125 10.12375 13.85625 10.1875 14.8125 C10 18 10 18 8.9375 19.875 C5.8930714 21.64273274 3.4368988 21.36823916 0 21 C-1.9375 19.6875 -1.9375 19.6875 -3 18 C-3 17.01 -3 16.02 -3 15 C-5.97 14.67 -8.94 14.34 -12 14 C-12 12.68 -12 11.36 -12 10 C-8.7 10.33 -5.4 10.66 -2 11 C-2 10.34 -2 9.68 -2 9 C-1.34 9 -0.68 9 0 9 C-0.185625 7.700625 -0.37125 6.40125 -0.5625 5.0625 C-0.87890625 2.84765625 -0.87890625 2.84765625 -1 1 C-0.67 0.67 -0.34 0.34 0 0 Z M1 12 C1 13.65 1 15.3 1 17 C2.65 17 4.3 17 6 17 C6 15.35 6 13.7 6 12 C4.35 12 2.7 12 1 12 Z " fill="#21C3E6" transform="translate(30,15)"/>
<path d="M0 0 C0.99 0.33 1.98 0.66 3 1 C2.8125 2.875 2.8125 2.875 2 5 C-0.5625 6.25 -0.5625 6.25 -3 7 C-2.938125 7.94875 -2.87625 8.8975 -2.8125 9.875 C-2.874375 10.90625 -2.93625 11.9375 -3 13 C-6 15 -6 15 -9.625 14.6875 C-13 14 -13 14 -14 13 C-14.37086093 7.1589404 -14.37086093 7.1589404 -14 5 C-11 3 -11 3 -7.5625 3.0625 C-3.64964792 2.99385347 -2.88962287 2.37361879 0 0 Z M-10 7 C-10 8.32 -10 9.64 -10 11 C-9.01 11 -8.02 11 -7 11 C-7 9.68 -7 8.36 -7 7 C-7.99 7 -8.98 7 -10 7 Z " fill="#20C3E6" transform="translate(28,49)"/>
<path d="M0 0 C3.625 0.25 3.625 0.25 5.5625 1.375 C7.12922245 4.13980433 7.01476435 6.13188517 6.625 9.25 C5.5625 11.125 5.5625 11.125 3.625 12.25 C-2.45680536 12.901622 -2.45680536 12.901622 -5.3125 10.875 C-6.375 9.25 -6.375 9.25 -6.375 7.25 C-7.695 7.25 -9.015 7.25 -10.375 7.25 C-10.1875 5.375 -10.1875 5.375 -9.375 3.25 C-6.875 2.0625 -6.875 2.0625 -4.375 1.25 C-3.375 0.25 -3.375 0.25 0 0 Z M-1.375 4.25 C-1.375 5.57 -1.375 6.89 -1.375 8.25 C-0.055 7.92 1.265 7.59 2.625 7.25 C2.295 6.26 1.965 5.27 1.625 4.25 C0.635 4.25 -0.355 4.25 -1.375 4.25 Z " fill="#21C2E5" transform="translate(57.375,40.75)"/>
<path d="M0 0 C2.86801846 0.08864784 3.78417611 0.16414857 6.125 1.9375 C7.45524773 5.3961441 6.91857025 7.8190159 6.0625 11.375 C4.0625 13.375 4.0625 13.375 0.125 13.75 C-2.74301846 13.66135216 -3.65917611 13.58585143 -6 11.8125 C-7.33024773 8.3538559 -6.79357025 5.9309841 -5.9375 2.375 C-3.9375 0.375 -3.9375 0.375 0 0 Z M-1.9375 4.375 C-2.2675 5.695 -2.5975 7.015 -2.9375 8.375 C-0.4625 8.87 -0.4625 8.87 2.0625 9.375 C2.3925 8.055 2.7225 6.735 3.0625 5.375 C1.4125 5.045 -0.2375 4.715 -1.9375 4.375 Z " fill="#21C2E5" transform="translate(6.9375,17.625)"/>
<path d="M0 0 C3.375 0.6875 3.375 0.6875 4.375 1.6875 C4.74586093 7.5285596 4.74586093 7.5285596 4.375 9.6875 C1.375 11.6875 1.375 11.6875 -2.25 11.375 C-5.625 10.6875 -5.625 10.6875 -6.625 9.6875 C-6.99586093 3.8464404 -6.99586093 3.8464404 -6.625 1.6875 C-3.625 -0.3125 -3.625 -0.3125 0 0 Z M-2.625 3.6875 C-2.625 5.0075 -2.625 6.3275 -2.625 7.6875 C-1.635 7.6875 -0.645 7.6875 0.375 7.6875 C0.375 6.3675 0.375 5.0475 0.375 3.6875 C-0.615 3.6875 -1.605 3.6875 -2.625 3.6875 Z " fill="#20C3E6" transform="translate(30.625,0.3125)"/>
<path d="M0 0 C3 0.25 3 0.25 5 2.25 C5.25 5.25 5.25 5.25 5 8.25 C3 10.25 3 10.25 0 10.5 C-3 10.25 -3 10.25 -5 8.25 C-5.25 5.25 -5.25 5.25 -5 2.25 C-3 0.25 -3 0.25 0 0 Z M-1 4.25 C-1 4.91 -1 5.57 -1 6.25 C-0.34 6.25 0.32 6.25 1 6.25 C1 5.59 1 4.93 1 4.25 C0.34 4.25 -0.32 4.25 -1 4.25 Z " fill="#21C2E5" transform="translate(38,39.75)"/>
<path d="M0 0 C3 0.25 3 0.25 5 2.25 C5.25 5.25 5.25 5.25 5 8.25 C3 10.25 3 10.25 0 10.5 C-3 10.25 -3 10.25 -5 8.25 C-5.25 5.25 -5.25 5.25 -5 2.25 C-3 0.25 -3 0.25 0 0 Z M-1 4.25 C-1 4.91 -1 5.57 -1 6.25 C-0.34 6.25 0.32 6.25 1 6.25 C1 5.59 1 4.93 1 4.25 C0.34 4.25 -0.32 4.25 -1 4.25 Z " fill="#21C2E5" transform="translate(50,12.75)"/>
</svg>
