<?xml version="1.0" encoding="UTF-8"?>
<svg version="1.1" xmlns="http://www.w3.org/2000/svg" width="50" height="50">
<path d="M0 0 C3.01747434 0.49834876 4.85258619 1.33446968 7.15234375 3.35546875 C9.24293031 7.37966951 9.29640818 10.44326343 8.90234375 14.91796875 C8.8146875 16.03300781 8.72703125 17.14804687 8.63671875 18.296875 C8.15234375 21.35546875 8.15234375 21.35546875 7.08203125 23.4609375 C5.87903731 25.91241674 6.1339334 27.43027835 6.52734375 30.10546875 C6.69363281 31.30429687 6.69363281 31.30429687 6.86328125 32.52734375 C7.00636719 33.43226562 7.00636719 33.43226562 7.15234375 34.35546875 C7.15234375 32.04546875 7.15234375 29.73546875 7.15234375 27.35546875 C10.12234375 27.35546875 13.09234375 27.35546875 16.15234375 27.35546875 C15.96671875 28.62390625 15.96671875 28.62390625 15.77734375 29.91796875 C16.18977741 33.6986106 16.6579941 34.22644764 19.15234375 36.85546875 C21.59956506 39.44664425 22.11066617 40.03395597 22.58984375 43.73046875 C22.15234375 46.35546875 22.15234375 46.35546875 21.15234375 47.35546875 C19.73664252 47.44198486 18.31674875 47.46251779 16.8984375 47.453125 C16.04443359 47.44990234 15.19042969 47.44667969 14.31054688 47.44335938 C13.41271484 47.43498047 12.51488281 47.42660156 11.58984375 47.41796875 C10.68814453 47.41345703 9.78644531 47.40894531 8.85742188 47.40429688 C6.62233061 47.392471 4.38736938 47.37599095 2.15234375 47.35546875 C1.49234375 46.03546875 0.83234375 44.71546875 0.15234375 43.35546875 C-7.43765625 43.35546875 -15.02765625 43.35546875 -22.84765625 43.35546875 C-20.84765625 36.35546875 -20.84765625 36.35546875 -18.03515625 34.04296875 C-15.33641312 32.61422239 -12.72446162 31.37081182 -9.84765625 30.35546875 C-9.99203125 29.05609375 -10.13640625 27.75671875 -10.28515625 26.41796875 C-10.36636719 25.68707031 -10.44757812 24.95617187 -10.53125 24.203125 C-10.66652239 22.34406646 -10.66652239 22.34406646 -11.84765625 21.35546875 C-12.05556977 18.75357959 -12.17219721 16.21099005 -12.22265625 13.60546875 C-12.26003906 12.88875 -12.29742187 12.17203125 -12.3359375 11.43359375 C-12.40171804 7.45752568 -12.01544554 5.57879805 -9.60546875 2.37109375 C-6.04491574 -0.23123678 -4.24515005 -0.26134867 0 0 Z M-7.54296875 4.4765625 C-9.46310839 7.24179354 -9.20927377 9.4643125 -9.16015625 12.79296875 C-9.15628906 13.92605469 -9.15242188 15.05914062 -9.1484375 16.2265625 C-8.85867444 19.2408509 -8.32894205 20.7838685 -6.84765625 23.35546875 C-6.15034819 25.67982895 -5.47853473 28.01220581 -4.84765625 30.35546875 C-2.86765625 30.35546875 -0.88765625 30.35546875 1.15234375 30.35546875 C3.91012914 22.55041576 6.30199531 14.73150158 5.15234375 6.35546875 C3.72951735 4.10083626 3.72951735 4.10083626 1.15234375 3.35546875 C-3.42324022 2.79315354 -3.42324022 2.79315354 -7.54296875 4.4765625 Z M10.15234375 29.35546875 C9.82234375 31.99546875 9.49234375 34.63546875 9.15234375 37.35546875 C10.80234375 37.35546875 12.45234375 37.35546875 14.15234375 37.35546875 C13.82234375 34.71546875 13.49234375 32.07546875 13.15234375 29.35546875 C12.16234375 29.35546875 11.17234375 29.35546875 10.15234375 29.35546875 Z " fill="#21C3E6" transform="translate(27.84765625,2.64453125)"/>
</svg>
