<?xml version="1.0" encoding="UTF-8"?>
<svg version="1.1" xmlns="http://www.w3.org/2000/svg" width="50" height="50">
<path d="M0 0 C1.55521168 0.00050055 3.11044645 0.01156306 4.66552734 0.03173828 C5.3908667 0.03375244 6.11620605 0.0357666 6.86352539 0.0378418 C9.57623609 0.04831558 12.28885674 0.07623817 15.00146484 0.10205078 C21.06521484 0.14330078 27.12896484 0.18455078 33.37646484 0.22705078 C33.37646484 12.43705078 33.37646484 24.64705078 33.37646484 37.22705078 C21.49646484 37.55705078 9.61646484 37.88705078 -2.62353516 38.22705078 C-2.62353516 39.87705078 -2.62353516 41.52705078 -2.62353516 43.22705078 C9.25646484 43.55705078 21.13646484 43.88705078 33.37646484 44.22705078 C33.37646484 44.88705078 33.37646484 45.54705078 33.37646484 46.22705078 C28.14373153 46.27640903 22.91113308 46.31275027 17.67822266 46.33691406 C15.89727417 46.3469851 14.11634228 46.36064263 12.33544922 46.37792969 C9.77876701 46.40212991 7.22230299 46.41352262 4.66552734 46.42236328 C3.86652008 46.43268585 3.06751282 46.44300842 2.24429321 46.4536438 C0.28689265 46.45404305 -1.66996592 46.34946147 -3.62353516 46.22705078 C-5.99400047 43.85658547 -5.87536654 43.39300906 -5.88232422 40.17626953 C-5.88862854 39.34200439 -5.89493286 38.50773926 -5.90142822 37.64819336 C-5.89737976 36.74609131 -5.8933313 35.84398926 -5.88916016 34.91455078 C-5.89107361 33.98989014 -5.89298706 33.06522949 -5.8949585 32.11254883 C-5.89632082 30.15559619 -5.89262112 28.19863454 -5.88427734 26.24169922 C-5.8735785 23.23921488 -5.88417106 20.23732891 -5.89697266 17.23486328 C-5.89565107 15.33642446 -5.89308869 13.437986 -5.88916016 11.53955078 C-5.89320862 10.63744873 -5.89725708 9.73534668 -5.90142822 8.8059082 C-5.8951239 7.97164307 -5.88881958 7.13737793 -5.88232422 6.27783203 C-5.88073303 5.54218018 -5.87914185 4.80652832 -5.87750244 4.04858398 C-5.34714473 0.24469176 -3.54045757 0.22184514 0 0 Z M-2.04736328 3.83056641 C-4.15432423 7.03408696 -4.08113377 9.14392995 -4.01416016 12.96142578 C-4.00416992 14.12899414 -3.99417969 15.2965625 -3.98388672 16.49951172 C-3.9474707 17.97709961 -3.91105469 19.4546875 -3.87353516 20.97705078 C-3.79103516 25.67955078 -3.70853516 30.38205078 -3.62353516 35.22705078 C7.92646484 35.22705078 19.47646484 35.22705078 31.37646484 35.22705078 C31.37646484 24.33705078 31.37646484 13.44705078 31.37646484 2.22705078 C23.82771484 2.10330078 23.82771484 2.10330078 16.12646484 1.97705078 C14.54446289 1.94063477 12.96246094 1.90421875 11.33251953 1.86669922 C10.08374023 1.85670898 8.83496094 1.84671875 7.54833984 1.83642578 C5.63166504 1.80500488 5.63166504 1.80500488 3.67626953 1.77294922 C0.35961549 1.98678084 0.35961549 1.98678084 -2.04736328 3.83056641 Z " fill="#22C2E5" transform="translate(9.62353515625,1.77294921875)"/>
<path d="M0 0 C4.62 0 9.24 0 14 0 C14 1.98 14 3.96 14 6 C13.34 6 12.68 6 12 6 C13.00447874 9.74396621 14.25280881 12.48268033 16.625 15.5 C18.56319308 18.07854006 18.995653 18.96708703 19.4375 22.3125 C19 25 19 25 17 27 C14.96875 27.25878906 14.96875 27.25878906 12.5 27.265625 C11.613125 27.26820312 10.72625 27.27078125 9.8125 27.2734375 C8.884375 27.26570313 7.95625 27.25796875 7 27.25 C5.6078125 27.26160156 5.6078125 27.26160156 4.1875 27.2734375 C2.8571875 27.26957031 2.8571875 27.26957031 1.5 27.265625 C0.6853125 27.26336914 -0.129375 27.26111328 -0.96875 27.25878906 C-3 27 -3 27 -5 25 C-5.61487797 21.77189063 -5.51342169 19.78315965 -3.69140625 17.00390625 C-2.60650317 15.62761434 -1.51009345 14.26031456 -0.40234375 12.90234375 C1.2531907 10.65653518 1.8262278 8.78035526 2 6 C1.34 6 0.68 6 0 6 C0 4.02 0 2.04 0 0 Z M2 2 C2 2.66 2 3.32 2 4 C5.3 4 8.6 4 12 4 C12 3.34 12 2.68 12 2 C8.7 2 5.4 2 2 2 Z M4 6 C4 8.64 4 11.28 4 14 C5.98 14 7.96 14 10 14 C10 11.36 10 8.72 10 6 C8.02 6 6.04 6 4 6 Z M-0.87890625 17.77734375 C-2.30023278 20.18033704 -2.30023278 20.18033704 -2 24 C0.97239791 25.48619895 3.69619578 25.13177009 7 25.125 C8.258125 25.12757812 9.51625 25.13015625 10.8125 25.1328125 C13.89677818 25.22227358 13.89677818 25.22227358 16 24 C15.45276317 20.62537285 14.9451 18.91765 13 16 C10.21297658 15.48225224 10.21297658 15.48225224 7.0625 15.5625 C6.00160156 15.54316406 4.94070312 15.52382813 3.84765625 15.50390625 C0.92531831 15.74291736 0.92531831 15.74291736 -0.87890625 17.77734375 Z " fill="#22C3E6" transform="translate(16,7)"/>
<path d="M0 0 C1.32 0 2.64 0 4 0 C4 1.32 4 2.64 4 4 C2.68 4 1.36 4 0 4 C0 2.68 0 1.36 0 0 Z " fill="#21C2E6" transform="translate(25,25)"/>
<path d="M0 0 C0.99 0 1.98 0 3 0 C3 0.99 3 1.98 3 3 C2.01 3 1.02 3 0 3 C0 2.01 0 1.02 0 0 Z " fill="#21C2E5" transform="translate(18,27)"/>
<path d="M0 0 C0.66 0 1.32 0 2 0 C2 0.66 2 1.32 2 2 C1.34 2 0.68 2 0 2 C0 1.34 0 0.68 0 0 Z " fill="#21C2E6" transform="translate(22,17)"/>
</svg>
